<?xml version="1.0" encoding="UTF-8" standalone="no"?>
<!-- Created with Inkscape (http://www.inkscape.org/) -->

<svg
   width="167.746mm"
   height="24.955mm"
   viewBox="0 0 169.75025 25.253164"
   version="1.1"
   id="svg5"
   inkscape:version="1.2.2 (b0a8486541, 2022-12-01)"
   sodipodi:docname="line.svg"
   xml:space="preserve"
   xmlns:inkscape="http://www.inkscape.org/namespaces/inkscape"
   xmlns:sodipodi="http://sodipodi.sourceforge.net/DTD/sodipodi-0.dtd"
   xmlns="http://www.w3.org/2000/svg"
   xmlns:svg="http://www.w3.org/2000/svg"><sodipodi:namedview
     id="namedview7"
     pagecolor="#ffffff"
     bordercolor="#666666"
     borderopacity="1.0"
     inkscape:showpageshadow="2"
     inkscape:pageopacity="0.0"
     inkscape:pagecheckerboard="0"
     inkscape:deskcolor="#d1d1d1"
     inkscape:document-units="mm"
     showgrid="false"
     inkscape:zoom="1.810627"
     inkscape:cx="507.00668"
     inkscape:cy="25.957859"
     inkscape:window-width="1561"
     inkscape:window-height="1055"
     inkscape:window-x="2279"
     inkscape:window-y="0"
     inkscape:window-maximized="1"
     inkscape:current-layer="layer1" /><defs
     id="defs2" /><g
     inkscape:label="Layer 1"
     inkscape:groupmode="layer"
     id="layer1"
     transform="translate(-41.15266,-142.64548)"><g
       aria-label="IN THE SKY"
       id="text366"
       style="font-weight:bold;font-size:13.1748px;line-height:100%;font-family:'Cinzel Decorative';-inkscape-font-specification:'Cinzel Decorative Bold';font-variant-ligatures:historical-ligatures;font-variant-numeric:lining-nums tabular-nums slashed-zero;font-feature-settings:'ss06';fill:#1a1a1a;stroke-width:1.65982;stroke-linecap:round;stroke-linejoin:round"
       transform="translate(82.472729,-15.000989)"><path
         d="m 39.803645,166.04067 v -0.13174 h 4.729754 v 0.13174 h -0.171273 q -0.342545,0 -0.592866,0.25033 -0.237146,0.23714 -0.250321,0.57969 v 7.29884 q 0.01317,0.34254 0.250321,0.59286 0.250321,0.23715 0.592866,0.23715 h 0.171273 v 0.13175 h -4.729754 v -0.13175 h 0.171273 q 0.342545,0 0.579691,-0.23715 0.250321,-0.25032 0.263496,-0.59286 v -7.29884 q -0.01318,-0.34255 -0.263496,-0.57969 -0.237146,-0.25033 -0.579691,-0.25033 z"
         style="font-weight:900;font-family:Cinzel;-inkscape-font-specification:'Cinzel Heavy'"
         id="path305" /><path
         d="m 59.96108,176.90988 q -0.803663,0.50065 -1.739074,0.50065 -0.816837,0 -1.699549,-0.48747 -0.909061,-0.48747 -1.778598,-1.38335 l -5.783737,-5.98136 v 4.63753 q 0,0.34254 0.237146,0.57969 0.237147,0.22397 0.566517,0.22397 h 0.250321 v 0.13175 h -4.821977 v -0.13175 h 0.250321 q 0.32937,0 0.566517,-0.22397 0.237146,-0.23715 0.237146,-0.57969 v -7.45694 q -2.028919,-2.16067 -3.557196,-2.16067 -0.382069,0 -0.737789,0.13175 l -0.06587,-0.11857 q 0.737789,-0.527 1.594151,-0.527 0.566516,0 1.159382,0.22398 0.579692,0.21079 1.01446,0.48746 0.816838,0.54017 1.449228,1.18574 l 5.414843,5.59929 v -4.71658 q -0.01318,-0.34255 -0.250321,-0.56652 -0.237147,-0.23715 -0.566517,-0.23715 h -0.250321 v -0.13174 h 4.821977 v 0.13174 h -0.237147 q -0.32937,0 -0.566516,0.23715 -0.237146,0.22397 -0.250321,0.55334 v 7.52281 l 0.237146,0.25032 q 0,0 0.303021,0.32937 0.316195,0.32937 0.421593,0.43477 0.118573,0.1054 0.461118,0.40842 0.342545,0.3162 0.553342,0.43477 0.210797,0.13175 0.579691,0.32937 0.368894,0.2108 0.671915,0.2635 0.342545,0.0791 0.724614,0.0791 0.382069,0 0.737789,-0.1054 z"
         style="font-weight:900;-inkscape-font-specification:'Cinzel Decorative Heavy'"
         id="path307" /><path
         d="m 61.711757,169.28168 q -0.803663,-0.71144 -0.803663,-1.52828 0,-0.76414 0.619215,-1.29113 0.65874,-0.56652 1.712724,-0.56652 h 6.732323 q 0.408419,0 0.882712,-0.079 0.474293,-0.079 0.671915,-0.15809 v 2.714 l -0.131748,-0.0132 v -0.0922 q 0,-1.06716 -0.790488,-1.50193 -0.38207,-0.19762 -0.909062,-0.2108 h -1.29113 v 7.62821 q 0.01318,0.34255 0.250321,0.57969 0.250321,0.23715 0.592866,0.23715 h 0.171273 v 0.13175 h -4.729754 v -0.13175 h 0.171273 q 0.342545,0 0.579691,-0.23715 0.250321,-0.23714 0.263496,-0.56651 v -7.64139 h -2.463688 q -0.737788,0 -1.225256,0.35572 -0.566516,0.40842 -0.566516,1.02764 0,0.60604 0.408418,1.27795 z"
         style="font-weight:900;-inkscape-font-specification:'Cinzel Decorative Heavy'"
         id="path309" /><path
         d="m 78.430577,174.99954 q 0.35572,0 0.592866,-0.23715 0.250322,-0.25032 0.263496,-0.59286 v -3.32005 h -3.530846 v 3.35957 q 0,1.30431 -0.63239,2.31877 -0.65874,1.06715 -2.094793,1.22525 -0.144923,0.0263 -0.316196,0.0263 -0.619215,0 -1.383354,-0.25032 v -0.13175 q 1.053984,-0.40842 1.396529,-1.13303 0.237147,-0.48747 0.276671,-0.88271 0.0527,-0.51382 0.0527,-1.17256 v -7.35154 q -0.01318,-0.34254 -0.263496,-0.57969 -0.237146,-0.23715 -0.579691,-0.23715 h -0.171272 v -0.13174 h 4.729753 v 0.13174 h -0.171273 q -0.474293,0 -0.711439,0.39525 -0.118573,0.18445 -0.131748,0.40842 v 3.3464 h 3.530846 v -3.09608 q 0,-0.75096 0.316196,-1.44923 0.316195,-0.69826 0.895886,-1.19891 0.909061,-0.80366 2.160667,-0.80366 0.487468,0 1.027635,0.13175 v 0.13175 q -0.632391,0.19762 -1.080334,0.64556 -0.276671,0.2635 -0.487468,0.94859 -0.105398,0.34254 -0.118573,0.79049 -0.01318,0.43476 -0.01318,0.80366 v 7.07487 q 0,0.46111 0.408419,0.71144 0.197622,0.11857 0.434769,0.11857 h 0.158097 v 0.13175 h -4.716578 v -0.13175 z"
         style="font-weight:900;-inkscape-font-specification:'Cinzel Decorative Heavy'"
         id="path311" /><path
         d="m 83.96399,174.99954 q 0.342545,0 0.579691,-0.23715 0.250321,-0.25032 0.263496,-0.59286 v -7.29884 q -0.01318,-0.4216 -0.355719,-0.67192 -0.210797,-0.1581 -0.487468,-0.1581 h -0.171272 v -0.13174 h 4.387208 q 0.566516,0 1.001285,-0.0922 0.447943,-0.0922 0.566516,-0.14492 v 2.71401 h -0.131748 v -0.1054 q 0,-0.77731 -0.434768,-1.22526 -0.434769,-0.44794 -1.212082,-0.47429 h -0.461118 v 3.67577 h 1.831297 q 0.632391,-0.0132 1.027635,-0.40842 0.395244,-0.40842 0.395244,-1.04081 v -0.0527 h 0.131748 v 3.6626 h -0.131748 v -0.0659 q 0,-0.61921 -0.395244,-1.01446 -0.395244,-0.40841 -1.01446,-0.42159 h -1.844472 v 3.54402 H 89.919 q 0.96176,0 1.699549,-0.63239 0.737789,-0.63239 1.040809,-1.75225 h 0.131748 l -0.500642,3.05656 h -8.497746 v -0.13175 z"
         style="font-weight:900;-inkscape-font-specification:'Cinzel Decorative Heavy'"
         id="path313" /><path
         d="m 105.94574,172.89157 q 0,0.56652 -0.25032,1.21208 -0.25032,0.63239 -0.80367,1.17256 -0.55334,0.54017 -1.42287,0.88271 -0.86954,0.34255 -1.89718,0.34255 -1.02763,0 -1.84447,-0.32937 -1.528277,-0.60604 -1.989395,-2.12115 -0.118573,-0.40842 -0.118573,-0.76414 0,-1.1462 0.698264,-2.14749 l 0.118573,0.0922 q -0.434768,0.77731 -0.434768,1.50192 0,0.89589 0.447943,1.58098 0.447943,0.68509 1.198907,1.06716 0.750969,0.38207 1.528279,0.38207 0.79049,0 1.33065,-0.25032 0.54017,-0.25033 0.79049,-0.67192 0.25032,-0.42159 0.25032,-0.88271 0,-0.46112 -0.32937,-0.93541 -0.32937,-0.48747 -0.97493,-0.84319 l -2.1475,-1.26478 q -1.633671,-0.96176 -1.633671,-2.47686 0,-1.35701 0.948586,-2.09479 0.790485,-0.61922 2.147495,-0.61922 0.86953,0 2.21337,0.13175 h 1.02763 l -0.27667,2.14749 h -0.13175 q 0,-0.72461 -0.56651,-1.17256 -0.56652,-0.44794 -1.44924,-0.44794 -0.88271,0 -1.357,0.30302 -0.47429,0.30302 -0.51382,0.80366 -0.0395,0.34255 0.18445,0.57969 0.19762,0.2108 0.39524,0.32937 0.19763,0.1054 0.35572,0.19763 0.1581,0.0922 0.22397,0.11857 l 2.4637,1.4097 q 0.83001,0.46112 1.29113,1.14621 0.52699,0.77731 0.52699,1.6205 z"
         style="font-weight:900;-inkscape-font-specification:'Cinzel Decorative Heavy'"
         id="path315" /><path
         d="m 106.69669,174.99954 q 0.34254,0 0.57969,-0.23715 0.25032,-0.25032 0.2635,-0.59286 v -7.31202 q -0.0132,-0.34254 -0.2635,-0.57969 -0.23715,-0.23715 -0.57969,-0.23715 h -0.17127 v -0.13174 h 4.72975 v 0.13174 h -0.17127 q -0.34255,0 -0.59287,0.23715 -0.23714,0.23715 -0.25032,0.57969 v 7.31202 q 0,0.34254 0.25032,0.59286 0.25032,0.23715 0.59287,0.23715 h 0.17127 v 0.13175 h -4.72975 v -0.13175 z m 13.99164,2.46369 q -1.30431,0.73779 -2.51639,0.73779 -1.71272,0 -3.35957,-1.71273 -0.60604,-0.63239 -1.25161,-1.52828 l -2.89846,-4.01831 3.14878,-4.29498 q 0.0922,-0.13175 0.0922,-0.23715 0,-0.1054 -0.0395,-0.18445 -0.0922,-0.19762 -0.36889,-0.19762 h -0.13175 v -0.11857 h 3.17513 v 0.11857 h -0.0527 q -0.88272,0 -1.44923,0.64557 l -2.25289,2.72718 3.01703,4.24228 q 1.43605,2.01575 2.46368,2.79306 1.04081,0.77732 2.39782,0.88271 z"
         style="font-weight:900;-inkscape-font-specification:'Cinzel Decorative Heavy'"
         id="path317" /><path
         d="m 116.5778,165.10526 q 1.92352,0 3.41227,0.89589 1.75225,1.06716 2.47686,3.05655 0.52699,-1.55462 1.6732,-2.75353 0.55334,-0.56652 1.17256,-0.86954 0.63239,-0.31619 1.21208,-0.31619 0.0922,0 0.18445,0.0132 v 0.13175 q -0.60604,0.0264 -1.27796,0.64557 -0.65874,0.60604 -1.17255,1.48875 -0.51382,0.86954 -0.89589,1.81812 -0.3689,0.94859 -0.46112,1.6732 v 3.28053 q 0,0.47429 0.40842,0.71144 0.19762,0.11857 0.43477,0.11857 h 0.1581 l 0.0132,0.13175 h -4.72975 v -0.13175 h 0.17127 q 0.34254,0 0.57969,-0.23715 0.25032,-0.25032 0.2635,-0.59286 V 170.889 q -0.28985,-1.38335 -1.00129,-2.75353 -0.39524,-0.75097 -0.86953,-1.35701 -0.4743,-0.60604 -1.13304,-1.02763 -0.65874,-0.43477 -1.357,-0.48747 v -0.13175 q 0.38207,-0.0264 0.73779,-0.0264 z"
         style="font-weight:900;-inkscape-font-specification:'Cinzel Decorative Heavy'"
         id="path319" /></g><g
       aria-label="C     MPASS"
       id="text236"
       style="font-weight:bold;font-size:13.1748px;line-height:100%;font-family:'Cinzel Decorative';-inkscape-font-specification:'Cinzel Decorative Bold';font-variant-ligatures:historical-ligatures;font-variant-numeric:lining-nums tabular-nums slashed-zero;font-feature-settings:'ss06';fill:#1a1a1a;stroke-width:1.65982;stroke-linecap:round;stroke-linejoin:round"><path
         d="m 51.132791,156.38933 0.316196,2.39782 q -0.263496,0.43476 -0.737789,0.80366 -0.461118,0.36889 -1.198907,0.60604 -0.724614,0.22397 -1.765423,0.22397 -1.765423,-0.0132 -3.069729,-0.56652 -1.29113,-0.56651 -1.989394,-1.63367 -0.698265,-1.06716 -0.698265,-2.60861 0,-1.50193 0.68509,-2.56909 0.685089,-1.08033 1.97622,-1.64685 1.29113,-0.56651 3.109253,-0.56651 1.106683,0 1.963045,0.18444 0.869537,0.18445 1.422878,0.4216 l -0.131748,2.51638 h -0.118573 q -0.395244,-1.39652 -1.146208,-1.92352 -0.750963,-0.54016 -1.765423,-0.54016 -1.462403,0 -2.27924,1.08033 -0.816838,1.08033 -0.816838,3.00385 0,1.9367 0.750964,3.04338 0.764138,1.10669 2.107968,1.14621 1.067159,0 1.699549,-0.31619 0.63239,-0.3162 0.98811,-1.05399 0.35572,-0.75096 0.592866,-2.00257 z"
         style="font-weight:900;font-family:Cinzel;-inkscape-font-specification:'Cinzel Heavy'"
         id="path322" /><path
         d="m 66.942542,150.40797 q 0.935411,-0.50064 1.831297,-0.50064 0.909062,0 1.660025,0.38207 1.501927,0.77731 2.569086,2.54274 l 2.358289,3.83386 3.912916,-5.83643 h 0.118573 l 1.488753,7.70725 q 0.447943,2.37147 1.330654,3.2937 0.698265,0.72462 1.778598,0.72462 0.09222,0 0.197622,0 v 0.13175 q -0.816837,0.34254 -1.699549,0.34254 -1.752248,0 -3.043379,-1.37018 -1.080333,-1.13303 -1.515102,-3.20147 l -0.60604,-2.77989 -2.252891,3.3464 q -0.223972,0.3162 -0.395244,0.76414 -0.171273,0.44794 -0.158098,0.76414 h -0.118573 l -3.201476,-5.48072 -0.65874,4.42674 v 0.0527 q 0,0.2108 0.144922,0.39525 0.158098,0.17127 0.368895,0.17127 h 0.197622 v 0.11857 h -2.885281 v -0.13174 h 0.210796 q 0.35572,0 0.619216,-0.2108 0.276671,-0.22397 0.342545,-0.59287 l 0.909061,-5.65199 q -0.671915,-1.17255 -1.488752,-2.08161 -0.935411,-1.02764 -1.870822,-1.02764 -0.0527,0 -0.105398,0 z"
         style="font-weight:900;-inkscape-font-specification:'Cinzel Decorative Heavy'"
         id="path324" /><path
         d="m 83.002624,152.33149 q -0.01318,-0.76413 -0.764139,-0.76413 -0.06587,0 -0.237146,0.0132 l -0.02635,-0.11857 q 1.106684,-0.079 2.674485,-0.34255 1.567801,-0.26349 1.963045,-0.30302 0.408419,-0.0395 0.750964,-0.0395 1.053984,0 1.660024,0.19762 0.619216,0.18445 1.080334,0.48747 0.461118,0.30302 0.737789,0.83001 0.30302,0.57969 0.30302,1.23843 0,0.64557 -0.171272,1.14621 -0.171273,0.50064 -0.487468,0.85636 -0.948585,1.08033 -2.424163,1.08033 -0.513817,0 -0.935411,-0.15809 -0.777313,-0.28985 -1.001285,-1.02764 l 0.131748,-0.079 q 0.184448,0.2635 0.606041,0.2635 0.645565,0 1.146208,-0.76414 0.30302,-0.48747 0.30302,-1.29113 0,-1.11986 -0.566516,-1.66002 -0.421594,-0.40842 -1.067159,-0.40842 -0.158098,0 -0.32937,0.0263 l -0.645565,0.0922 v 7.66773 q 0.01318,0.34255 0.250321,0.59287 0.250321,0.23715 0.592866,0.23715 h 0.171272 v 0.13174 h -4.729753 v -0.13174 h 0.171273 q 0.342544,0 0.579691,-0.23715 0.250321,-0.25032 0.263496,-0.59287 z"
         style="font-weight:900;-inkscape-font-specification:'Cinzel Decorative Heavy'"
         id="path326" /><path
         d="m 102.98881,162.48926 q -1.01446,0.59287 -2.06844,0.59287 -1.053988,0 -2.002574,-0.39524 -0.935411,-0.39525 -1.844472,-1.38336 -0.895886,-0.97493 -1.475577,-2.38464 l -0.35572,-0.86953 H 92.42262 l -0.526992,1.22525 q -0.06587,0.17128 -0.06587,0.27667 0,0.1054 0.03952,0.23715 0.0527,0.11857 0.197622,0.22397 0.158098,0.0922 0.32937,0.0922 h 0.118574 v 0.13174 h -2.937981 v -0.13174 h 0.118573 q 0.303021,0 0.592866,-0.17128 0.303021,-0.18444 0.500643,-0.54016 l 2.687659,-5.90231 q -0.395244,-1.09351 -0.65874,-1.46241 -0.250321,-0.38207 -0.421594,-0.57969 -0.316195,-0.36889 -0.790488,-0.54016 -0.184447,-0.0659 -0.434768,-0.0659 -0.250321,0 -0.566516,0.11857 l -0.02635,-0.13174 q 1.053984,-0.61922 2.015744,-0.61922 1.422879,0 2.569086,1.39653 0.579691,0.72461 1.040809,1.75225 l 2.107968,4.83515 q 0.579692,1.33065 0.856362,1.79177 0.276671,0.44795 0.487468,0.76414 0.223972,0.32937 0.434765,0.56652 0.2108,0.23714 0.46112,0.46112 0.43477,0.39524 1.09351,0.59286 0.27667,0.0922 0.60604,0.0922 0.34255,0 0.71144,-0.1054 z m -10.276344,-5.09864 h 2.266065 l -0.830012,-2.0421 q -0.105399,-0.23714 -0.250321,-0.67191 z"
         style="font-weight:900;-inkscape-font-specification:'Cinzel Decorative Heavy'"
         id="path328" /><path
         d="m 107.87665,157.99666 q 0,0.56651 -0.25032,1.21208 -0.25032,0.63239 -0.80366,1.17256 -0.55334,0.54016 -1.42288,0.88271 -0.86954,0.34254 -1.89717,0.34254 -1.02763,0 -1.84447,-0.32937 -1.52828,-0.60604 -1.989397,-2.12114 -0.118573,-0.40842 -0.118573,-0.76414 0,-1.14621 0.69826,-2.14749 l 0.11858,0.0922 q -0.434771,0.77732 -0.434771,1.50193 0,0.89589 0.447941,1.58098 0.44795,0.68509 1.19891,1.06716 0.75096,0.38206 1.52828,0.38206 0.79048,0 1.33065,-0.25032 0.54017,-0.25032 0.79049,-0.67191 0.25032,-0.4216 0.25032,-0.88271 0,-0.46112 -0.32937,-0.93541 -0.32937,-0.48747 -0.97494,-0.84319 l -2.14749,-1.26478 q -1.63367,-0.96176 -1.63367,-2.47686 0,-1.35701 0.94858,-2.0948 0.79049,-0.61921 2.1475,-0.61921 0.86953,0 2.21336,0.13174 h 1.02764 l -0.27667,2.1475 h -0.13175 q 0,-0.72462 -0.56652,-1.17256 -0.56652,-0.44794 -1.44923,-0.44794 -0.88271,0 -1.357,0.30302 -0.47429,0.30302 -0.51382,0.80366 -0.0395,0.34254 0.18445,0.57969 0.19762,0.2108 0.39524,0.32937 0.19762,0.1054 0.35572,0.19762 0.1581,0.0922 0.22397,0.11858 l 2.46369,1.4097 q 0.83001,0.46112 1.29113,1.14621 0.52699,0.77731 0.52699,1.6205 z"
         style="font-weight:900;-inkscape-font-specification:'Cinzel Decorative Heavy'"
         id="path330" /><path
         d="m 116.71694,157.99666 q 0,0.56651 -0.25032,1.21208 -0.25032,0.63239 -0.80366,1.17256 -0.55335,0.54016 -1.42288,0.88271 -0.86954,0.34254 -1.89717,0.34254 -1.02764,0 -1.84448,-0.32937 -1.52827,-0.60604 -1.98939,-2.12114 -0.11857,-0.40842 -0.11857,-0.76414 0,-1.14621 0.69826,-2.14749 l 0.11857,0.0922 q -0.43476,0.77732 -0.43476,1.50193 0,0.89589 0.44794,1.58098 0.44794,0.68509 1.19891,1.06716 0.75096,0.38206 1.52827,0.38206 0.79049,0 1.33066,-0.25032 0.54016,-0.25032 0.79049,-0.67191 0.25032,-0.4216 0.25032,-0.88271 0,-0.46112 -0.32937,-0.93541 -0.32937,-0.48747 -0.97494,-0.84319 l -2.14749,-1.26478 q -1.63368,-0.96176 -1.63368,-2.47686 0,-1.35701 0.94859,-2.0948 0.79049,-0.61921 2.14749,-0.61921 0.86954,0 2.21337,0.13174 h 1.02763 l -0.27667,2.1475 h -0.13175 q 0,-0.72462 -0.56651,-1.17256 -0.56652,-0.44794 -1.44923,-0.44794 -0.88271,0 -1.35701,0.30302 -0.47429,0.30302 -0.51381,0.80366 -0.0395,0.34254 0.18444,0.57969 0.19763,0.2108 0.39525,0.32937 0.19762,0.1054 0.35572,0.19762 0.1581,0.0922 0.22397,0.11858 l 2.46369,1.4097 q 0.83001,0.46112 1.29113,1.14621 0.52699,0.77731 0.52699,1.6205 z"
         style="font-weight:900;-inkscape-font-specification:'Cinzel Decorative Heavy'"
         id="path332" /></g><g
       id="g600"
       transform="matrix(0.01534614,0.18455598,-0.18455598,0.01534614,71.320968,142.50983)"
       style="stroke:#1a1a1a;stroke-width:2.69989"><path
         d="m 64,30.34 c -18.59,0 -33.66,15.07 -33.66,33.65 0,18.59 15.07,33.66 33.66,33.66 18.59,0 33.66,-15.07 33.66,-33.66 C 97.66,45.41 82.59,30.34 64,30.34 Z"
         style="fill:#fcc21b;stroke:#1a1a1a;stroke-width:2.69989"
         id="path582" /><path
         d="m 56.76,24.21 v 0 h 14.49 c 0.67,0 1.29,-0.33 1.68,-0.88 0.38,-0.54 0.47,-1.25 0.24,-1.88 L 65.92,1.83 C 65.62,1.02 64.86,0.49 64,0.49 c -0.86,0 -1.62,0.54 -1.92,1.34 l -7.25,19.63 c -0.23,0.63 -0.14,1.33 0.24,1.88 0.39,0.55 1.02,0.87 1.69,0.87 z"
         style="fill:#fcc21b;stroke:#1a1a1a;stroke-width:2.69989"
         id="path584" /><path
         d="m 97.26,40.99 c 0.38,0.39 0.91,0.6 1.44,0.6 0.12,0 0.24,-0.01 0.36,-0.03 0.66,-0.12 1.21,-0.55 1.5,-1.16 l 8.76,-19.01 c 0.36,-0.78 0.19,-1.69 -0.41,-2.3 -0.61,-0.61 -1.53,-0.77 -2.31,-0.42 l -19,8.77 c -0.61,0.28 -1.04,0.84 -1.16,1.5 -0.12,0.66 0.1,1.33 0.56,1.81 z"
         style="fill:#fcc21b;stroke:#1a1a1a;stroke-width:2.69989"
         id="path586" /><path
         d="m 126.18,62.08 -19.64,-7.24 c -0.63,-0.23 -1.33,-0.14 -1.88,0.24 -0.55,0.38 -0.87,1 -0.87,1.67 l 0.01,14.49 c 0,0.67 0.33,1.3 0.88,1.68 0.35,0.23 0.76,0.36 1.17,0.36 0.24,0 0.48,-0.04 0.71,-0.13 l 19.64,-7.24 c 0.8,-0.29 1.34,-1.06 1.34,-1.93 -0.02,-0.84 -0.55,-1.6 -1.36,-1.9 z"
         style="fill:#fcc21b;stroke:#1a1a1a;stroke-width:2.69989"
         id="path588" /><path
         d="m 100.56,87.6 c -0.28,-0.61 -0.84,-1.04 -1.5,-1.16 -0.66,-0.11 -1.34,0.1 -1.8,0.57 L 87.01,97.26 c -0.47,0.47 -0.69,1.15 -0.57,1.81 0.12,0.65 0.55,1.22 1.16,1.5 l 19.01,8.76 c 0.27,0.13 0.56,0.18 0.86,0.18 0.53,0 1.05,-0.21 1.44,-0.6 0.61,-0.61 0.77,-1.52 0.41,-2.3 z"
         style="fill:#fcc21b;stroke:#1a1a1a;stroke-width:2.69989"
         id="path590" /><path
         d="m 71.24,103.78 v 0 l -14.49,0.01 c -0.67,0 -1.29,0.33 -1.67,0.88 -0.38,0.55 -0.47,1.25 -0.25,1.87 l 7.25,19.64 c 0.3,0.8 1.06,1.34 1.92,1.34 0.86,0 1.62,-0.54 1.92,-1.34 l 7.25,-19.64 c 0.23,-0.63 0.14,-1.33 -0.24,-1.88 -0.39,-0.55 -1.01,-0.88 -1.69,-0.88 z"
         style="fill:#fcc21b;stroke:#1a1a1a;stroke-width:2.69989"
         id="path592" /><path
         d="m 30.74,87.01 c -0.47,-0.47 -1.14,-0.68 -1.8,-0.57 -0.66,0.12 -1.22,0.55 -1.5,1.16 l -8.76,19.01 c -0.36,0.78 -0.19,1.7 0.42,2.3 0.39,0.39 0.91,0.6 1.44,0.6 0.29,0 0.58,-0.06 0.86,-0.19 l 19.01,-8.77 c 0.61,-0.28 1.04,-0.84 1.16,-1.5 0.12,-0.66 -0.1,-1.33 -0.57,-1.8 z"
         style="fill:#fcc21b;stroke:#1a1a1a;stroke-width:2.69989"
         id="path594" /><path
         d="m 22.17,73.29 c 0.41,0 0.82,-0.13 1.17,-0.37 0.55,-0.38 0.88,-1.01 0.88,-1.68 L 24.21,56.75 c 0,-0.67 -0.33,-1.29 -0.88,-1.68 -0.55,-0.38 -1.25,-0.47 -1.87,-0.24 L 1.82,62.08 c -0.8,0.29 -1.34,1.06 -1.34,1.92 0,0.85 0.53,1.62 1.34,1.92 l 19.65,7.24 c 0.23,0.09 0.46,0.13 0.7,0.13 z"
         style="fill:#fcc21b;stroke:#1a1a1a;stroke-width:2.69989"
         id="path596" /><path
         d="m 27.45,40.4 c 0.28,0.61 0.84,1.04 1.5,1.16 0.12,0.02 0.24,0.03 0.36,0.03 0.54,0 1.06,-0.21 1.45,-0.6 L 41,30.74 c 0.47,-0.48 0.68,-1.15 0.56,-1.81 -0.12,-0.65 -0.55,-1.21 -1.16,-1.49 L 21.38,18.68 c -0.78,-0.36 -1.69,-0.19 -2.3,0.42 -0.61,0.61 -0.77,1.52 -0.41,2.3 z"
         style="fill:#fcc21b;stroke:#1a1a1a;stroke-width:2.69989"
         id="path598" /></g></g></svg>
